<?xml version="1.0" encoding="UTF-8" standalone="no"?>
<!DOCTYPE svg PUBLIC "-//W3C//DTD SVG 1.1//EN" "http://www.w3.org/Graphics/SVG/1.1/DTD/svg11.dtd">
<svg width="100%" height="100%" viewBox="0 0 500 500" version="1.1" xmlns="http://www.w3.org/2000/svg" xmlns:xlink="http://www.w3.org/1999/xlink" xml:space="preserve" xmlns:serif="http://www.serif.com/" style="fill-rule:evenodd;clip-rule:evenodd;stroke-linejoin:round;stroke-miterlimit:2;">
    <g transform="matrix(1.48343,0,0,1.48343,-2351.45,-2357.52)">
        <path d="M1645.94,1860.24C1673.36,1887.66 1711.24,1904.62 1753.09,1904.62C1794.93,1904.62 1832.82,1887.66 1860.23,1860.24C1887.66,1832.82 1904.62,1794.93 1904.62,1753.09C1904.62,1711.24 1887.66,1673.36 1860.23,1645.94C1832.85,1618.56 1795.03,1601.61 1753.25,1601.56L1753.09,1601.56C1711.24,1601.56 1673.36,1618.52 1645.94,1645.94C1618.52,1673.36 1601.56,1711.24 1601.56,1753.09C1601.56,1794.93 1618.52,1832.82 1645.94,1860.24ZM1753.09,1916.05C1708.09,1916.05 1667.35,1897.81 1637.85,1868.32C1608.36,1838.83 1590.12,1798.09 1590.12,1753.09C1590.12,1708.09 1608.36,1667.35 1637.85,1637.86C1665.74,1609.97 1703.7,1592.14 1745.8,1590.29L1745.8,1590.13L1753.09,1590.13C1798.08,1590.13 1838.83,1608.37 1868.32,1637.86C1897.81,1667.35 1916.05,1708.09 1916.05,1753.09C1916.05,1798.09 1897.81,1838.83 1868.32,1868.32C1838.83,1897.81 1798.08,1916.05 1753.09,1916.05Z"/>
    </g>
    <g transform="matrix(1.48343,0,0,1.48343,-2351.45,-2357.52)">
        <path d="M1796.58,1667.04L1771.21,1666.47C1761.23,1666.28 1751.6,1670.01 1744.39,1677.06C1737.17,1684.12 1733.2,1693.55 1733.2,1703.64L1733.2,1727.71L1709.63,1727.71C1708.66,1727.71 1707.88,1728.49 1707.88,1729.46L1707.88,1759.7C1707.88,1760.67 1708.66,1761.45 1709.63,1761.45L1733.2,1761.45L1733.2,1837.96C1733.2,1838.93 1733.99,1839.72 1734.96,1839.72L1766.18,1839.72C1767.15,1839.72 1767.93,1838.93 1767.93,1837.96L1767.93,1761.45L1791.7,1761.45C1792.58,1761.45 1793.33,1760.8 1793.44,1759.93L1797.37,1729.69C1797.44,1729.19 1797.28,1728.68 1796.95,1728.3C1796.61,1727.92 1796.13,1727.71 1795.63,1727.71L1767.93,1727.71L1767.92,1712.42C1767.92,1712.34 1767.29,1704.97 1771.14,1700.75C1772.94,1698.79 1775.38,1697.84 1778.61,1697.84L1796.55,1697.84C1797.51,1697.84 1798.3,1697.06 1798.3,1696.09L1798.3,1668.79C1798.3,1667.84 1797.54,1667.06 1796.58,1667.04Z"/>
    </g>
</svg>
