<?xml version="1.0" encoding="UTF-8" standalone="no"?>
<!DOCTYPE svg PUBLIC "-//W3C//DTD SVG 1.1//EN" "http://www.w3.org/Graphics/SVG/1.1/DTD/svg11.dtd">
<svg width="100%" height="100%" viewBox="0 0 330 342" version="1.1" xmlns="http://www.w3.org/2000/svg" xmlns:xlink="http://www.w3.org/1999/xlink" xml:space="preserve" xmlns:serif="http://www.serif.com/" style="fill-rule:evenodd;clip-rule:evenodd;stroke-linejoin:round;stroke-miterlimit:2;">
    <g id="Mesa-de-trabajo1" serif:id="Mesa de trabajo1" transform="matrix(1,0,0,1.53627,0,-92.5652)">
        <rect x="0" y="60.253" width="330" height="222.148" style="fill:none;"/>
        <g id="XMLID_93_" transform="matrix(0.917628,0,0,0.597308,13.5917,50.9272)">
            <path d="M325.606,229.393L175.602,79.393C172.79,76.58 168.974,75 164.996,75C161.017,75 157.202,76.581 154.389,79.394L4.393,229.394C-1.465,235.252 -1.465,244.749 4.393,250.607C10.25,256.464 19.748,256.465 25.606,250.607L164.996,111.214L304.393,250.607C307.322,253.536 311.161,255 315,255C318.839,255 322.678,253.536 325.607,250.606C331.464,244.748 331.464,235.251 325.606,229.393Z" style="fill:white;fill-rule:nonzero;stroke:white;stroke-width:0.47px;"/>
        </g>
        <g id="XMLID_93_1" serif:id="XMLID_93_" transform="matrix(0.643761,0,0,0.419041,58.7797,123.068)">
            <path d="M325.606,229.393L175.602,79.393C172.79,76.58 168.974,75 164.996,75C161.017,75 157.202,76.581 154.389,79.394L4.393,229.394C-1.465,235.252 -1.465,244.749 4.393,250.607C10.25,256.464 19.748,256.465 25.606,250.607L164.996,111.214L304.393,250.607C307.322,253.536 311.161,255 315,255C318.839,255 322.678,253.536 325.607,250.606C331.464,244.748 331.464,235.251 325.606,229.393Z" style="fill:white;fill-rule:nonzero;"/>
        </g>
        <g transform="matrix(0.643761,0,0,0.419041,58.7797,127.891)">
            <path d="M333.744,221.255L183.74,71.254C178.772,66.284 172.027,63.49 164.996,63.49C157.964,63.49 151.222,66.284 146.251,71.256L-3.746,221.256C-14.098,231.608 -14.098,248.393 -3.745,258.745C6.606,269.097 23.392,269.098 33.744,258.745L164.996,127.491C164.996,127.491 296.255,258.746 296.255,258.746C301.431,263.922 308.215,266.51 315,266.51C321.785,266.51 328.57,263.922 333.747,258.743C344.097,248.391 344.097,231.607 333.744,221.255Z" style="fill:white;"/>
        </g>
    </g>
</svg>
