<?xml version="1.0" encoding="UTF-8" standalone="no"?>
<!DOCTYPE svg PUBLIC "-//W3C//DTD SVG 1.1//EN" "http://www.w3.org/Graphics/SVG/1.1/DTD/svg11.dtd">
<svg width="100%" height="100%" viewBox="0 0 500 500" version="1.1" xmlns="http://www.w3.org/2000/svg" xmlns:xlink="http://www.w3.org/1999/xlink" xml:space="preserve" xmlns:serif="http://www.serif.com/" style="fill-rule:evenodd;clip-rule:evenodd;stroke-linejoin:round;stroke-miterlimit:2;">
    <g transform="matrix(1.48343,0,0,1.48343,-2351.45,-2357.52)">
        <g transform="matrix(1,0,0,1,1482.07,493.83)">
            <path d="M164.456,1366.41C191.874,1393.83 229.759,1410.79 271.603,1410.79C313.449,1410.79 351.333,1393.83 378.752,1366.41C406.173,1338.99 423.133,1301.11 423.133,1259.26C423.133,1217.42 406.173,1179.53 378.752,1152.11C351.37,1124.73 313.548,1107.78 271.767,1107.73L271.603,1107.73C229.759,1107.73 191.874,1124.7 164.456,1152.11C137.037,1179.53 120.076,1217.42 120.076,1259.26C120.076,1301.11 137.037,1338.99 164.456,1366.41ZM271.603,1422.22C226.606,1422.22 185.864,1403.98 156.372,1374.49C126.882,1345 108.64,1304.26 108.64,1259.26C108.64,1214.26 126.882,1173.52 156.372,1144.03C184.263,1116.14 222.218,1098.32 264.315,1096.46L264.315,1096.3L271.603,1096.3C316.601,1096.3 357.344,1114.54 386.836,1144.03C416.327,1173.52 434.569,1214.26 434.569,1259.26C434.569,1304.26 416.327,1345 386.836,1374.49C357.344,1403.98 316.601,1422.22 271.603,1422.22Z" style="fill:white;"/>
        </g>
        <g transform="matrix(0.117848,0,0,0.117848,1606.66,1613.37)">
            <path d="M722.885,1676.21L629.009,1676.21C558.249,1676.21 500.357,1618.32 500.357,1547.56L500.357,806.687L722.885,1017.6L722.885,1676.21Z" style="fill:white;"/>
        </g>
        <g transform="matrix(0.117848,0,0,0.117848,1606.66,1613.37)">
            <path d="M1647.66,1676.21L847.376,1676.21L847.376,1135.59L1202.16,1471.86L1247.52,1514.85L1292.88,1471.86L1647.66,1135.59L1647.66,1676.21Z" style="fill:white;"/>
        </g>
        <g transform="matrix(0.117848,0,0,0.117848,1606.66,1613.37)">
            <path d="M1994.68,806.687L1994.68,1547.56C1994.68,1618.32 1936.79,1676.21 1866.03,1676.21L1772.15,1676.21L1772.15,1017.6L1994.68,806.687Z" style="fill:white;"/>
        </g>
        <g transform="matrix(0.117848,0,0,0.117848,1606.66,1613.37)">
            <path d="M1247.52,1333.5L1622.74,977.861L1923.41,692.889L571.626,692.889L872.292,977.861L1247.52,1333.5Z" style="fill:white;"/>
        </g>
    </g>
</svg>
