<?xml version="1.0" encoding="UTF-8" standalone="no"?>
<!DOCTYPE svg PUBLIC "-//W3C//DTD SVG 1.1//EN" "http://www.w3.org/Graphics/SVG/1.1/DTD/svg11.dtd">
<svg width="100%" height="100%" viewBox="0 0 500 500" version="1.1" xmlns="http://www.w3.org/2000/svg" xmlns:xlink="http://www.w3.org/1999/xlink" xml:space="preserve" xmlns:serif="http://www.serif.com/" style="fill-rule:evenodd;clip-rule:evenodd;stroke-linejoin:round;stroke-miterlimit:2;">
    <g transform="matrix(1.47817,0,0,1.47817,-889.548,-1620.52)">
        <path d="M658.283,1366.41C685.701,1393.83 723.586,1410.79 765.43,1410.79C807.276,1410.79 845.16,1393.83 872.579,1366.41C900,1338.99 916.96,1301.11 916.96,1259.26C916.96,1217.42 900,1179.53 872.579,1152.11C845.197,1124.73 807.375,1107.78 765.593,1107.73L765.43,1107.73C723.586,1107.73 685.701,1124.7 658.283,1152.11C630.864,1179.53 613.902,1217.42 613.902,1259.26C613.902,1301.11 630.864,1338.99 658.283,1366.41ZM765.43,1422.22C720.433,1422.22 679.691,1403.98 650.199,1374.49C620.709,1345 602.467,1304.26 602.467,1259.26C602.467,1214.26 620.709,1173.52 650.199,1144.03C678.089,1116.14 716.045,1098.32 758.142,1096.46L758.142,1096.3L765.43,1096.3C810.428,1096.3 851.171,1114.54 880.663,1144.03C910.154,1173.52 928.396,1214.26 928.396,1259.26C928.396,1304.26 910.154,1345 880.663,1374.49C851.171,1403.98 810.428,1422.22 765.43,1422.22Z" style="fill:white;"/>
    </g>
    <g transform="matrix(1.47817,0,0,1.47817,-889.548,-1620.52)">
        <path d="M828.339,1292.76C828.339,1308.98 815.149,1322.17 798.935,1322.17L731.929,1322.17C715.714,1322.17 702.525,1308.98 702.525,1292.76L702.525,1225.76C702.525,1209.54 715.714,1196.35 731.929,1196.35L798.935,1196.35C815.149,1196.35 828.339,1209.54 828.339,1225.76L828.339,1292.76ZM798.935,1180.22L731.929,1180.22C706.822,1180.22 686.394,1200.65 686.394,1225.76L686.394,1292.76C686.394,1317.87 706.822,1338.3 731.929,1338.3L798.935,1338.3C824.044,1338.3 844.469,1317.87 844.469,1292.76L844.469,1225.76C844.469,1200.65 824.044,1180.22 798.935,1180.22Z" style="fill:white;"/>
    </g>
    <g transform="matrix(1.47817,0,0,1.47817,-889.548,-1620.52)">
        <path d="M765.431,1279.09C754.498,1279.09 745.602,1270.2 745.602,1259.26C745.602,1248.33 754.498,1239.43 765.431,1239.43C776.368,1239.43 785.262,1248.33 785.262,1259.26C785.262,1270.2 776.368,1279.09 765.431,1279.09ZM765.431,1222.55C745.193,1222.55 728.724,1239.02 728.724,1259.26C728.724,1279.5 745.193,1295.97 765.431,1295.97C785.673,1295.97 802.14,1279.5 802.14,1259.26C802.14,1239.02 785.673,1222.55 765.431,1222.55Z" style="fill:white;"/>
    </g>
    <g transform="matrix(1.47817,0,0,1.47817,-889.548,-1620.52)">
        <path d="M806.565,1206.64C800.551,1206.64 795.677,1211.51 795.677,1217.53C795.677,1223.54 800.551,1228.41 806.565,1228.41C812.578,1228.41 817.452,1223.54 817.452,1217.53C817.452,1211.51 812.578,1206.64 806.565,1206.64Z" style="fill:white;"/>
    </g>
</svg>
