<?xml version="1.0" encoding="UTF-8" standalone="no"?>
<!DOCTYPE svg PUBLIC "-//W3C//DTD SVG 1.1//EN" "http://www.w3.org/Graphics/SVG/1.1/DTD/svg11.dtd">
<svg width="100%" height="100%" viewBox="0 0 500 500" version="1.1" xmlns="http://www.w3.org/2000/svg" xmlns:xlink="http://www.w3.org/1999/xlink" xml:space="preserve" xmlns:serif="http://www.serif.com/" style="fill-rule:evenodd;clip-rule:evenodd;stroke-linejoin:round;stroke-miterlimit:2;">
    <g transform="matrix(1.48343,0,0,1.48343,-2351.45,-2357.52)">
        <g transform="matrix(1,0,0,1,1482.07,493.83)">
            <path d="M164.456,1366.41C191.874,1393.83 229.759,1410.79 271.603,1410.79C313.449,1410.79 351.333,1393.83 378.752,1366.41C406.173,1338.99 423.133,1301.11 423.133,1259.26C423.133,1217.42 406.173,1179.53 378.752,1152.11C351.37,1124.73 313.548,1107.78 271.767,1107.73L271.603,1107.73C229.759,1107.73 191.874,1124.7 164.456,1152.11C137.037,1179.53 120.076,1217.42 120.076,1259.26C120.076,1301.11 137.037,1338.99 164.456,1366.41ZM271.603,1422.22C226.606,1422.22 185.864,1403.98 156.372,1374.49C126.882,1345 108.64,1304.26 108.64,1259.26C108.64,1214.26 126.882,1173.52 156.372,1144.03C184.263,1116.14 222.218,1098.32 264.315,1096.46L264.315,1096.3L271.603,1096.3C316.601,1096.3 357.344,1114.54 386.836,1144.03C416.327,1173.52 434.569,1214.26 434.569,1259.26C434.569,1304.26 416.327,1345 386.836,1374.49C357.344,1403.98 316.601,1422.22 271.603,1422.22Z" style="fill:white;"/>
        </g>
        <g transform="matrix(1,0,0,1,1482.07,493.83)">
            <rect x="213.388" y="1236.27" width="23.81" height="81.64" style="fill:white;"/>
        </g>
        <g transform="matrix(1,0,0,1,1482.07,493.83)">
            <path d="M225.294,1200.62C218.089,1200.62 212.249,1206.46 212.249,1213.66C212.249,1220.87 218.089,1226.71 225.294,1226.71C232.497,1226.71 238.337,1220.87 238.337,1213.66C238.337,1206.46 232.497,1200.62 225.294,1200.62Z" style="fill:white;"/>
        </g>
        <g transform="matrix(1,0,0,1,1482.07,493.83)">
            <path d="M311.482,1235.99C289.296,1229.75 277.584,1244.69 277.584,1244.69L274.661,1233.92L252.832,1233.92L252.832,1317.91L278.365,1317.91L278.365,1268.08C278.365,1260.64 284.397,1254.61 291.837,1254.61C299.278,1254.61 305.309,1260.64 305.309,1268.08L305.309,1317.91L330.844,1317.91L330.844,1275.91C330.844,1275.91 333.669,1242.24 311.482,1235.99Z" style="fill:white;"/>
        </g>
    </g>
</svg>
