<?xml version="1.0" encoding="UTF-8" standalone="no"?>
<!DOCTYPE svg PUBLIC "-//W3C//DTD SVG 1.1//EN" "http://www.w3.org/Graphics/SVG/1.1/DTD/svg11.dtd">
<svg width="100%" height="100%" viewBox="0 0 288 243" version="1.1" xmlns="http://www.w3.org/2000/svg" xmlns:xlink="http://www.w3.org/1999/xlink" xml:space="preserve" xmlns:serif="http://www.serif.com/" style="fill-rule:evenodd;clip-rule:evenodd;stroke-linejoin:round;stroke-miterlimit:2;">
    <g transform="matrix(0.0193506,6.46284e-34,6.46284e-34,-0.0193506,55.3655,253.105)">
        <path d="M4380,12784C3737,12732 3268,12615 2720,12370C2437,12244 2085,12031 1823,11828C911,11122 299,10124 89,9000C58,8835 33,8625 14,8375C-5,8131 -1,8028 36,7660C130,6734 516,5838 1129,5120C1174,5068 1898,4128 2738,3030C3577,1933 4292,1007 4326,974C4515,785 4785,785 4974,974C5008,1007 5723,1933 6562,3030C7402,4128 8126,5068 8171,5120C8623,5649 8959,6288 9134,6952C9221,7280 9259,7527 9291,7975C9302,8123 9301,8176 9286,8375C9230,9113 9090,9644 8798,10225C8188,11438 7086,12324 5782,12650C5499,12720 5262,12757 4901,12785C4676,12802 4604,12802 4380,12784ZM4887,10545C5458,10474 5968,10156 6284,9674C6567,9241 6666,8713 6560,8201C6514,7979 6403,7716 6276,7526C5966,7064 5498,6765 4944,6674C4794,6649 4506,6649 4356,6674C3714,6779 3180,7172 2899,7745C2706,8140 2652,8572 2741,9013C2799,9300 2953,9620 3145,9850C3221,9940 3373,10088 3455,10151C3867,10466 4381,10608 4887,10545Z" style="fill:rgb(9,51,169);fill-rule:nonzero;stroke:rgb(9,51,169);stroke-width:51.68px;"/>
    </g>
</svg>
