<?xml version="1.0" encoding="UTF-8" standalone="no"?>
<!DOCTYPE svg PUBLIC "-//W3C//DTD SVG 1.1//EN" "http://www.w3.org/Graphics/SVG/1.1/DTD/svg11.dtd">
<svg width="100%" height="100%" viewBox="0 0 500 500" version="1.1" xmlns="http://www.w3.org/2000/svg" xmlns:xlink="http://www.w3.org/1999/xlink" xml:space="preserve" xmlns:serif="http://www.serif.com/" style="fill-rule:evenodd;clip-rule:evenodd;stroke-linejoin:round;stroke-miterlimit:2;">
    <g transform="matrix(1.47548,0,0,1.47548,-1611.46,-1614.95)">
        <path d="M1152.11,1366.41C1179.53,1393.83 1217.41,1410.79 1259.26,1410.79C1301.1,1410.79 1338.99,1393.83 1366.41,1366.41C1393.83,1338.99 1410.79,1301.11 1410.79,1259.26C1410.79,1217.42 1393.83,1179.53 1366.41,1152.11C1339.03,1124.73 1301.2,1107.78 1259.42,1107.73L1259.26,1107.73C1217.41,1107.73 1179.53,1124.7 1152.11,1152.11C1124.69,1179.53 1107.73,1217.42 1107.73,1259.26C1107.73,1301.11 1124.69,1338.99 1152.11,1366.41ZM1259.26,1422.22C1214.26,1422.22 1173.52,1403.98 1144.03,1374.49C1114.54,1345 1096.3,1304.26 1096.3,1259.26C1096.3,1214.26 1114.54,1173.52 1144.03,1144.03C1171.92,1116.14 1209.87,1098.32 1251.97,1096.46L1251.97,1096.3L1259.26,1096.3C1304.26,1096.3 1345,1114.54 1374.49,1144.03C1403.98,1173.52 1422.22,1214.26 1422.22,1259.26C1422.22,1304.26 1403.98,1345 1374.49,1374.49C1345,1403.98 1304.26,1422.22 1259.26,1422.22Z" style="fill:white;"/>
    </g>
    <g transform="matrix(1.47548,0,0,1.47548,-1611.46,-1614.95)">
        <path d="M1330.79,1208.46C1330.79,1208.46 1341.5,1200.38 1345.01,1189.15C1345.01,1189.15 1330.64,1195.9 1322.02,1195.99C1315.06,1187.26 1304.36,1181.65 1292.34,1181.65C1271.38,1181.65 1254.38,1198.64 1254.38,1219.61C1254.38,1223.76 1255.07,1227.74 1256.3,1231.48C1256.21,1231.47 1256.11,1231.46 1256.01,1231.46C1199.84,1227.59 1177.02,1191.55 1177.02,1191.55C1177.02,1191.55 1163.21,1220.1 1185.68,1242.57C1185.68,1242.57 1179.74,1243.29 1172.82,1239.3C1172.82,1239.3 1168.13,1263.64 1198.79,1276.75C1198.79,1276.75 1190.24,1279.03 1185.39,1278.21C1185.39,1278.21 1192.58,1300.85 1220.09,1304.13C1220.09,1304.13 1208.62,1318.64 1168.59,1321.45C1168.59,1321.45 1234.82,1364.75 1299.2,1306.24C1299.2,1306.24 1327.28,1282.48 1330.78,1234.67L1349.93,1204.07L1330.79,1208.46Z" style="fill:white;"/>
    </g>
</svg>
