<?xml version="1.0" encoding="UTF-8" standalone="no"?>
<!DOCTYPE svg PUBLIC "-//W3C//DTD SVG 1.1//EN" "http://www.w3.org/Graphics/SVG/1.1/DTD/svg11.dtd">
<svg width="100%" height="100%" viewBox="0 0 500 500" version="1.1" xmlns="http://www.w3.org/2000/svg" xmlns:xlink="http://www.w3.org/1999/xlink" xml:space="preserve" xmlns:serif="http://www.serif.com/" style="fill-rule:evenodd;clip-rule:evenodd;stroke-linejoin:round;stroke-miterlimit:2;">
    <g transform="matrix(1.48609,0,0,1.48609,-154.76,-158.086)">
        <path d="M164.456,378.755C191.874,406.173 229.759,423.135 271.603,423.135C313.449,423.135 351.333,406.173 378.752,378.755C406.173,351.334 423.133,313.451 423.133,271.606C423.133,229.761 406.173,191.879 378.752,164.459C351.37,137.074 313.548,120.123 271.767,120.079L271.603,120.079C229.759,120.079 191.874,137.041 164.456,164.46C137.037,191.878 120.076,229.761 120.076,271.606L120.076,271.607C120.076,313.451 137.037,351.335 164.456,378.755ZM271.603,434.569C226.606,434.569 185.864,416.328 156.372,386.839C126.882,357.346 108.64,316.604 108.64,271.607L108.64,271.606C108.64,226.609 126.882,185.866 156.372,156.376C184.263,128.486 222.218,110.661 264.315,108.808L264.315,108.643L271.603,108.643C316.601,108.643 357.344,126.885 386.836,156.376C416.327,185.866 434.569,226.609 434.569,271.606L434.569,271.607C434.569,316.604 416.327,357.346 386.836,386.839C357.344,416.328 316.601,434.569 271.603,434.569Z" style="fill:white;"/>
    </g>
    <g transform="matrix(1.48609,0,0,1.48609,-154.76,-158.086)">
        <path d="M311.298,291.632L294.752,284.026C293.278,283.35 291.553,283.516 290.235,284.461L283.724,289.135C281.746,290.553 279.142,290.741 276.996,289.595C274.321,288.166 255.072,268.869 253.642,266.193C252.498,264.049 252.686,261.443 254.105,259.468L258.778,252.954C259.725,251.637 259.889,249.913 259.213,248.44L251.609,231.894C250.717,229.957 248.78,228.715 246.648,228.715L241.168,228.715C240.477,228.715 239.779,228.825 239.145,229.097C228.902,233.49 229.549,246.153 229.549,246.153C229.549,264.959 245.116,282.321 252.569,289.557C259.032,296.428 277.236,313.69 297.036,313.69C297.036,313.69 309.702,314.337 314.094,304.093C314.367,303.46 314.475,302.762 314.475,302.07L314.475,296.59C314.475,294.459 313.234,292.523 311.298,291.632Z" style="fill:white;"/>
    </g>
    <g transform="matrix(1.48609,0,0,1.48609,-154.76,-158.086)">
        <path d="M230.664,331.59L233.901,333.608C245.878,341.077 259.691,345.023 273.849,345.023C315.567,345.023 349.507,311.083 349.507,269.366C349.507,227.647 315.567,193.708 273.849,193.708C232.13,193.708 198.19,227.647 198.19,269.366C198.19,283.529 202.143,297.353 209.621,309.338L211.643,312.576L202.681,340.54L230.664,331.59ZM177.224,365.985L193.653,314.717C185.831,300.914 181.713,285.316 181.713,269.366C181.713,218.562 223.046,177.23 273.849,177.23C324.653,177.23 365.985,218.562 365.985,269.366C365.985,320.169 324.653,361.503 273.849,361.503C257.906,361.503 242.319,357.389 228.52,349.576L177.224,365.985Z" style="fill:white;"/>
    </g>
</svg>
