<?xml version="1.0" encoding="UTF-8" standalone="no"?>
<!DOCTYPE svg PUBLIC "-//W3C//DTD SVG 1.1//EN" "http://www.w3.org/Graphics/SVG/1.1/DTD/svg11.dtd">
<svg width="100%" height="100%" viewBox="0 0 500 500" version="1.1" xmlns="http://www.w3.org/2000/svg" xmlns:xlink="http://www.w3.org/1999/xlink" xml:space="preserve" xmlns:serif="http://www.serif.com/" style="fill-rule:evenodd;clip-rule:evenodd;stroke-linejoin:round;stroke-miterlimit:2;">
    <g transform="matrix(1.48343,0,0,1.48343,-2351.45,-2357.52)">
        <path d="M1645.94,1860.24C1673.36,1887.66 1711.24,1904.62 1753.09,1904.62C1794.93,1904.62 1832.82,1887.66 1860.23,1860.24C1887.66,1832.82 1904.62,1794.93 1904.62,1753.09C1904.62,1711.24 1887.66,1673.36 1860.23,1645.94C1832.85,1618.56 1795.03,1601.61 1753.25,1601.56L1753.09,1601.56C1711.24,1601.56 1673.36,1618.52 1645.94,1645.94C1618.52,1673.36 1601.56,1711.24 1601.56,1753.09C1601.56,1794.93 1618.52,1832.82 1645.94,1860.24ZM1753.09,1916.05C1708.09,1916.05 1667.35,1897.81 1637.85,1868.32C1608.36,1838.83 1590.12,1798.09 1590.12,1753.09C1590.12,1708.09 1608.36,1667.35 1637.85,1637.86C1665.74,1609.97 1703.7,1592.14 1745.8,1590.29L1745.8,1590.13L1753.09,1590.13C1798.08,1590.13 1838.83,1608.37 1868.32,1637.86C1897.81,1667.35 1916.05,1708.09 1916.05,1753.09C1916.05,1798.09 1897.81,1838.83 1868.32,1868.32C1838.83,1897.81 1798.08,1916.05 1753.09,1916.05Z" style="fill:white;"/>
    </g>
    <g transform="matrix(13.0253,0,0,13.0253,93.7204,93.791)">
        <path d="M23,9.71C23.049,8.279 22.736,6.858 22.09,5.58C21.652,5.056 21.043,4.702 20.37,4.58C17.588,4.328 14.794,4.224 12,4.27C9.217,4.222 6.433,4.322 3.66,4.57C3.112,4.67 2.604,4.927 2.2,5.31C1.3,6.14 1.2,7.56 1.1,8.76C0.955,10.918 0.955,13.082 1.1,15.24C1.129,15.915 1.229,16.586 1.4,17.24C1.521,17.745 1.765,18.212 2.11,18.6C2.517,19.003 3.036,19.275 3.6,19.38C5.756,19.646 7.928,19.756 10.1,19.71C13.6,19.76 16.67,19.71 20.3,19.43C20.877,19.332 21.411,19.059 21.83,18.65C22.11,18.37 22.319,18.027 22.44,17.65C22.798,16.553 22.973,15.404 22.96,14.25C23,13.69 23,10.31 23,9.71ZM9.74,14.85L9.74,8.66L15.66,11.77C14,12.69 11.81,13.73 9.74,14.85Z" style="fill:white;fill-rule:nonzero;"/>
    </g>
</svg>
